<svg xmlns="http://www.w3.org/2000/svg" viewBox="0 0 595.28 841.89"><defs><style>.cls-1{fill:#b66113;}.cls-2{fill:#f58220;}</style></defs><title>logo có shadow có tròn đen đen </title><g id="Layer_3" data-name="Layer 3"><circle cx="290.76" cy="348.42" r="259.26"/></g><g id="Layer_6" data-name="Layer 6"><path class="cls-1" d="M328.47,434.46c22.15-4.84,33.51-7.38,38.18-9.39a128.42,128.42,0,0,0,38.52-25.68c6.9-6.67,18.59-18.21,26.6-37,11.15-26.14,8.12-49.77,6.42-61.76-1.4-9.91-4.18-28.15-16.81-47.69a106.25,106.25,0,0,0-34.55-33.63c-11.29-6.54-23.5-10.4-30.27-12.54-2.6-.82-8.87-2.74-17.12-4.58-7.22-1.62-13.64-2.67-19-3.37-13.29-1.68-144.2-17.85-153.78,1.53a31,31,0,0,0-3.06,12.84c.17,8.88,5.05,15.38,9.79,21.71,3.13,4.19,7.61,10.05,15.59,15,9.2,5.69,17.8,6.9,23.54,7.64,6.69.87,13.52.29,26.91-.91,12.44-1.12,12.16-1.58,22-2.45a217,217,0,0,1,34.85-.92c9.63.62,16.58,1.07,25.68,3.67a96.26,96.26,0,0,1,32.1,16.51c7.72,6,16.78,13,23.24,26a66.26,66.26,0,0,1,5.81,40.36c-2.81,15.71-10.74,25.82-15.9,32.4a91.59,91.59,0,0,1-29,24.16,107.49,107.49,0,0,1-37.3,11.92,50.71,50.71,0,0,0-12.84,1.22c-4.3,1.06-7.08,1.79-9.18,4.28-4.42,5.27-1.56,13.41-1.22,14.37a13.09,13.09,0,0,0,4.59,6.73,12.94,12.94,0,0,0,7.64,2.14c12,0,20.1-.3,25.34-.64"/><path class="cls-1" d="M183.91,342.93h13.92A44.57,44.57,0,0,1,242.4,387.5V512.06a11.1,11.1,0,0,1-11.1,11.1h-19a39.52,39.52,0,0,1-39.52-39.52V354a11.1,11.1,0,0,1,11.1-11.1Z"/></g><g id="Layer_5" data-name="Layer 5"><path class="cls-2" d="M338.55,821.18a69.92,69.92,0,0,0,8.6-.89l4.62-1"/><path class="cls-2" d="M353.6,431.69c22.16-4.84,33.52-7.38,38.18-9.38a128.68,128.68,0,0,0,38.53-25.68c6.89-6.67,18.58-18.22,26.59-37,11.16-26.14,8.12-49.76,6.43-61.75-1.41-9.92-4.19-28.16-16.82-47.7A106.37,106.37,0,0,0,412,216.55c-11.29-6.54-23.5-10.4-30.27-12.53-2.6-.83-8.87-2.74-17.12-4.59-7.22-1.62-13.64-2.66-18.95-3.36-13.29-1.69-144.21-17.86-153.79,1.53a30.82,30.82,0,0,0-3.05,12.84c.17,8.87,5,15.38,9.78,21.7,3.14,4.19,7.62,10.05,15.59,15,9.2,5.69,17.81,6.9,23.54,7.65,6.69.87,13.52.28,26.91-.92,12.45-1.12,12.16-1.57,22-2.45a216.08,216.08,0,0,1,34.86-.91c9.62.62,16.58,1.06,25.68,3.67a96.24,96.24,0,0,1,32.1,16.51c7.72,6,16.78,13,23.23,26A66.1,66.1,0,0,1,408.29,337c-2.81,15.71-10.74,25.82-15.89,32.41a91.63,91.63,0,0,1-29,24.15,107.43,107.43,0,0,1-37.3,11.92,51,51,0,0,0-12.84,1.23c-4.3,1.06-7.08,1.78-9.17,4.28-4.42,5.26-1.56,13.41-1.22,14.37a13.1,13.1,0,0,0,4.58,6.72,12.88,12.88,0,0,0,7.64,2.14c12,0,20.11-.3,25.34-.64"/><path class="cls-2" d="M209,340.16H223a44.57,44.57,0,0,1,44.57,44.57V509.3a11.1,11.1,0,0,1-11.1,11.1h-19a39.52,39.52,0,0,1-39.52-39.52V351.26a11.1,11.1,0,0,1,11.1-11.1Z"/></g></svg>