<svg viewBox="100.334444 159.397896126 385.0822598870056 395.68829999999997" xmlns="http://www.w3.org/2000/svg" style="max-height: 500px" width="385.0822598870056" height="395.68829999999997"><defs><style>.cls-1{fill:#b66113;}.cls-2{fill:#f58220;}</style></defs><title>logo cรณ </title><g data-name="Layer 6" id="Layer_6"><path d="M327.94,434.46c22.15-4.84,33.51-7.38,38.18-9.39a128.42,128.42,0,0,0,38.52-25.68c6.9-6.67,18.59-18.21,26.6-37,11.15-26.14,8.12-49.77,6.42-61.76-1.4-9.91-4.18-28.15-16.81-47.69a106.25,106.25,0,0,0-34.55-33.63c-11.29-6.54-23.5-10.4-30.27-12.54-2.6-.82-8.87-2.74-17.12-4.58-7.22-1.62-13.64-2.67-19-3.37-13.3-1.68-144.21-17.85-153.79,1.53a31,31,0,0,0-3.06,12.84c.18,8.88,5,15.38,9.79,21.71,3.14,4.19,7.61,10.05,15.59,15,9.2,5.69,17.81,6.9,23.54,7.64,6.69.87,13.52.29,26.91-.91,12.44-1.12,12.16-1.58,22-2.45a217,217,0,0,1,34.85-.92c9.63.62,16.59,1.07,25.68,3.67a96.36,96.36,0,0,1,32.11,16.51c7.71,6,16.77,13,23.23,26a66.26,66.26,0,0,1,5.81,40.36c-2.81,15.71-10.74,25.82-15.9,32.4a91.59,91.59,0,0,1-29,24.16,107.43,107.43,0,0,1-37.3,11.92,50.71,50.71,0,0,0-12.84,1.22c-4.3,1.06-7.08,1.79-9.17,4.28-4.42,5.27-1.56,13.41-1.23,14.37a13.09,13.09,0,0,0,4.59,6.73,12.94,12.94,0,0,0,7.64,2.14c12,0,20.11-.3,25.34-.64" class="cls-1"/><path d="M174.21,342.93h13.92A44.57,44.57,0,0,1,232.7,387.5V512.06a11.1,11.1,0,0,1-11.1,11.1h-19a39.52,39.52,0,0,1-39.52-39.52V354a11.1,11.1,0,0,1,11.1-11.1Z" class="cls-1"/></g><g data-name="Layer 5" id="Layer_5"><path d="M338.55,821.18a69.92,69.92,0,0,0,8.6-.89l4.62-1" class="cls-2"/><path d="M347.29,425.84c22.15-4.84,33.51-7.38,38.18-9.38A128.6,128.6,0,0,0,424,390.77c6.89-6.67,18.59-18.21,26.6-37C461.74,327.64,458.71,304,457,292c-1.4-9.91-4.18-28.15-16.81-47.69a106.37,106.37,0,0,0-34.55-33.63c-11.29-6.54-23.5-10.4-30.27-12.54-2.6-.82-8.88-2.74-17.12-4.58-7.22-1.62-13.64-2.67-19-3.37-13.29-1.68-144.2-17.85-153.78,1.53a31,31,0,0,0-3.06,12.84c.17,8.88,5,15.39,9.79,21.71,3.13,4.19,7.61,10.05,15.59,15,9.2,5.69,17.8,6.9,23.54,7.65,6.69.86,13.52.28,26.9-.92,12.45-1.12,12.16-1.57,22-2.45a217,217,0,0,1,34.85-.92c9.63.62,16.58,1.07,25.68,3.67a96.26,96.26,0,0,1,32.1,16.51c7.72,6,16.78,13,23.24,26A66.26,66.26,0,0,1,402,331.16c-2.81,15.71-10.74,25.82-15.9,32.4a91.59,91.59,0,0,1-29,24.16,107.49,107.49,0,0,1-37.3,11.92,50.71,50.71,0,0,0-12.84,1.22c-4.3,1.07-7.08,1.79-9.18,4.28-4.42,5.27-1.56,13.41-1.22,14.37a13.09,13.09,0,0,0,4.59,6.73,12.94,12.94,0,0,0,7.64,2.14c12,0,20.1-.3,25.34-.64" class="cls-2"/><path d="M193.56,334.31h13.92A44.57,44.57,0,0,1,252,378.88V503.44a11.1,11.1,0,0,1-11.1,11.1H222A39.52,39.52,0,0,1,182.46,475V345.4a11.1,11.1,0,0,1,11.1-11.1Z" class="cls-2"/></g></svg>