<svg xmlns="http://www.w3.org/2000/svg"  viewBox="0 0 50 50" width="50px" height="50px" fill-rule="evenodd"><path fill-rule="evenodd" d="M 0 19 L 0 32.417969 C 0.683594 32.320313 1.414063 32.226563 2.09375 32.140625 C 2.097656 29.332031 2.097656 27.609375 2.101563 24.808594 C 3.042969 27.566406 3.621094 29.195313 4.554688 31.816406 C 5.289063 31.734375 6.097656 31.632813 6.835938 31.558594 C 6.839844 27.371094 6.847656 23.183594 6.855469 19 L 4.75 19 C 4.746094 21.863281 4.742188 23.714844 4.738281 26.578125 C 3.835938 23.785156 2.929688 21.9375 2.023438 19 Z M 8.886719 19 L 8.863281 31.378906 C 10.8125 31.203125 12.765625 31.054688 14.71875 30.941406 C 14.722656 30.339844 14.722656 29.472656 14.722656 28.871094 C 13.453125 28.945313 12.238281 29.027344 10.96875 29.113281 C 10.972656 28.007813 10.972656 27.085938 10.976563 25.980469 C 11.902344 25.960938 12.878906 25.976563 13.824219 25.960938 C 13.824219 25.355469 13.828125 24.484375 13.828125 23.878906 C 12.890625 23.894531 11.902344 23.898438 10.980469 23.914063 C 10.984375 22.804688 10.984375 22.195313 10.984375 21.085938 C 11.566406 21.078125 14.246094 21.078125 14.730469 21.074219 C 14.730469 20.46875 14.71875 19.601563 14.71875 19 Z M 23.941406 19 C 23.941406 22.882813 23.941406 26.769531 23.941406 30.652344 C 24.167969 30.652344 24.398438 30.652344 24.625 30.652344 C 25.09375 30.652344 25.566406 30.652344 26.027344 30.65625 C 26.027344 29.007813 26.027344 27.503906 26.027344 25.855469 C 26.140625 25.855469 28.601563 25.851563 28.878906 25.855469 C 28.878906 25.265625 28.878906 24.386719 28.875 23.796875 C 28.617188 23.792969 26.132813 23.796875 26.027344 23.796875 C 26.027344 22.734375 26.027344 22.136719 26.027344 21.078125 C 26.253906 21.078125 29.230469 21.078125 29.800781 21.078125 C 29.800781 20.488281 29.796875 19.59375 29.796875 19 Z M 31.167969 19.011719 C 31.171875 22.933594 31.152344 26.851563 31.15625 30.773438 C 33.027344 30.84375 34.996094 30.917969 36.863281 31.046875 C 36.863281 30.445313 36.863281 29.578125 36.863281 28.972656 C 35.679688 28.90625 34.449219 28.820313 33.265625 28.769531 C 33.257813 25.414063 33.277344 22.367188 33.269531 19.011719 Z M 38.59375 19.011719 L 38.617188 31.175781 C 39.304688 31.230469 40.011719 31.285156 40.699219 31.347656 C 40.699219 27.238281 40.707031 23.121094 40.699219 19.011719 Z M 42.5 19.011719 C 43.34375 21.0625 44.113281 23.117188 44.96875 25.296875 C 44.082031 27.386719 43.175781 29.464844 42.289063 31.46875 C 43.023438 31.542969 43.785156 31.652344 44.519531 31.734375 C 45.046875 30.441406 45.523438 29.445313 46.050781 28.117188 C 46.578125 29.53125 47.058594 30.621094 47.582031 32.082031 C 48.316406 32.175781 49.269531 32.316406 50 32.421875 C 49.113281 30.046875 48.140625 27.574219 47.25 25.328125 C 48.136719 23.222656 49.042969 21.210938 49.96875 19.011719 L 47.671875 19.011719 C 47.101563 20.371094 46.707031 21.246094 46.160156 22.542969 C 45.652344 21.195313 45.3125 20.320313 44.800781 19.011719 Z M 16.082031 19.011719 C 16.082031 19.609375 16.082031 20.472656 16.082031 21.074219 C 16.175781 21.070313 18.199219 21.082031 18.269531 21.082031 C 18.265625 24.410156 18.261719 27.445313 18.257813 30.773438 C 18.945313 30.746094 19.679688 30.726563 20.363281 30.710938 C 20.367188 27.402344 20.371094 24.378906 20.375 21.074219 C 21.101563 21.070313 21.851563 21.066406 22.578125 21.066406 C 22.578125 20.476563 22.578125 19.601563 22.578125 19.011719 Z"/></svg>